<?xml version="1.0" standalone="no"?>
<!DOCTYPE svg PUBLIC "-//W3C//DTD SVG 20010904//EN"
 "http://www.w3.org/TR/2001/REC-SVG-20010904/DTD/svg10.dtd">
<svg version="1.0" xmlns="http://www.w3.org/2000/svg"
 width="588.000000pt" height="588.000000pt" viewBox="0 0 588.000000 588.000000"
 preserveAspectRatio="xMidYMid meet">
<metadata>
Created by potrace 1.14, written by Peter Selinger 2001-2017
</metadata>
<g transform="translate(0.000000,588.000000) scale(0.100000,-0.100000)"
fill="#000000" stroke="none">
<path d="M2907 5674 c-1 -1 -61 -4 -133 -7 -72 -4 -137 -8 -145 -11 -8 -3 -36
-7 -64 -10 -52 -5 -57 -6 -188 -32 -336 -65 -714 -231 -1022 -446 -46 -33
-223 -178 -279 -229 -398 -366 -704 -906 -811 -1434 -16 -77 -36 -210 -41
-265 -3 -36 -7 -81 -10 -99 -6 -48 -6 -354 1 -421 8 -75 24 -201 29 -225 2
-11 7 -40 11 -65 4 -25 20 -97 36 -160 86 -347 245 -680 459 -964 107 -142
128 -165 270 -306 407 -405 883 -650 1465 -755 42 -8 169 -24 235 -30 117 -10
419 -5 541 10 1046 126 1929 843 2268 1842 39 114 50 170 34 160 -5 -3 -42 -8
-83 -11 -119 -10 -183 -16 -215 -21 -16 -2 -68 -7 -115 -11 -47 -3 -94 -7
-105 -9 -11 -1 -30 -3 -41 -4 -17 -1 -29 -18 -55 -79 -304 -705 -934 -1194
-1689 -1311 -192 -30 -426 -30 -630 -1 -72 11 -84 13 -185 35 -76 16 -222 63
-317 101 -613 246 -1090 769 -1278 1402 -16 53 -31 108 -33 122 -3 14 -10 43
-15 65 -6 22 -14 65 -17 95 -4 30 -8 57 -10 60 -6 10 -17 204 -17 299 0 97 9
212 22 291 21 124 20 122 44 220 122 504 458 983 898 1278 415 278 899 406
1388 367 69 -5 281 -37 325 -49 6 -2 24 -6 40 -10 167 -42 396 -135 553 -225
360 -208 678 -544 862 -911 75 -150 167 -416 183 -527 3 -17 7 -35 10 -40 3
-4 8 -35 12 -68 3 -32 8 -62 10 -65 4 -6 16 -185 19 -265 l1 -50 132 -95 c73
-52 142 -102 153 -110 12 -8 67 -48 122 -87 95 -69 121 -83 116 -65 -1 4 2 39
6 77 5 39 10 88 12 110 4 53 4 380 0 425 -9 91 -17 157 -21 176 -3 12 -7 39
-11 60 -33 222 -121 498 -235 739 -63 134 -233 402 -324 514 -158 190 -361
382 -550 517 -408 292 -909 470 -1405 500 -94 5 -211 10 -213 8z"/>
<path d="M2290 4689 c-35 -13 -70 -68 -70 -110 0 -19 7 -62 15 -96 8 -34 17
-75 19 -90 3 -15 19 -91 35 -168 16 -77 29 -140 28 -141 -1 0 -23 -15 -49 -32
-26 -18 -52 -32 -58 -32 -6 0 -44 34 -83 76 -40 42 -92 98 -117 124 -25 26
-104 110 -176 186 -147 156 -175 173 -240 151 -69 -24 -105 -112 -71 -174 11
-19 106 -123 357 -387 47 -49 95 -99 108 -112 12 -13 22 -27 22 -31 0 -4 -18
-27 -39 -50 l-39 -42 -58 14 c-33 7 -72 16 -89 19 -16 2 -68 12 -115 21 -202
38 -204 39 -241 21 -95 -45 -92 -185 6 -221 22 -8 101 -26 175 -40 74 -14 145
-28 156 -30 21 -5 21 -8 -22 -111 -144 -353 -131 -724 36 -1069 124 -257 331
-467 590 -595 188 -95 359 -134 580 -135 279 0 498 66 731 220 165 110 294
252 431 476 9 14 22 26 30 26 31 1 195 14 218 18 27 4 148 15 215 20 51 4 159
14 205 20 19 2 64 7 100 10 125 11 175 15 230 22 52 5 97 9 148 12 13 0 21 5
18 10 -6 9 -274 203 -865 625 l-180 128 -16 57 c-95 336 -300 606 -595 783
-291 174 -666 229 -985 144 -47 -13 -85 -21 -85 -19 0 2 -11 55 -25 118 -13
62 -27 125 -29 140 -28 155 -56 225 -95 240 -30 12 -86 14 -111 4z m782 -942
c204 -31 404 -152 536 -323 69 -90 129 -232 151 -354 10 -57 8 -232 -4 -285
-66 -312 -291 -551 -600 -636 -109 -31 -284 -31 -402 -1 -413 106 -677 513
-603 932 57 323 307 584 625 654 103 22 202 27 297 13z"/>
</g>
</svg>
